<?xml version="1.0" encoding="iso-8859-1"?>
<!-- Uploaded to: SVG Repo, www.svgrepo.com, Generator: SVG Repo Mixer Tools -->
<svg height="50px" width="50px" version="1.1" id="Layer_1" xmlns="http://www.w3.org/2000/svg" xmlns:xlink="http://www.w3.org/1999/xlink" 
	 viewBox="0 0 296.999 296.999" xml:space="preserve">
<g id="XMLID_39_">
	<g>
		<path d="M296.619,276.446c0.851,2.99,0.257,6.207-1.614,8.692s-4.801,3.94-7.91,3.94H9.899c-3.109,0-6.029-1.455-7.9-3.94
			c-1.871-2.485-2.475-5.702-1.614-8.692l46.203-161.012c0.643-2.247,2.069-4.207,4.019-5.504l83.417-55.608l-22.621-11.316
			c-4.891-2.445-6.871-8.385-4.425-13.276s8.385-6.88,13.276-4.425l18.345,9.167V17.821c0-5.465,4.435-9.9,9.9-9.9
			c5.475,0,9.9,4.435,9.9,9.9v16.652l18.344-9.167c4.891-2.455,10.84-0.465,13.286,4.425c2.445,4.891,0.465,10.83-4.435,13.276
			l-22.611,11.316l83.407,55.608c1.95,1.297,3.376,3.257,4.029,5.504L296.619,276.446z M273.958,269.279l-41.57-144.885
			l-73.992-49.331v70.596l77.269,123.62H273.958z M212.312,269.279l-63.815-102.098L84.692,269.279H212.312z M138.597,145.659
			V75.063l-73.982,49.331l-41.57,144.885h38.293L138.597,145.659z"/>
		<polygon style="fill:#FA802A;" points="232.389,124.394 273.958,269.279 235.666,269.279 158.397,145.659 158.397,75.063 		"/>
		<polygon style="fill:#0A4D4B;" points="148.497,167.181 212.312,269.279 84.692,269.279 		"/>
		<polygon style="fill:#FA802A;" points="138.597,75.063 138.597,145.659 61.338,269.279 23.046,269.279 64.615,124.394 		"/>
	</g>
</g>
</svg>